<svg preserveAspectRatio="none" width="100%" height="100%" overflow="visible" style="display: block;" viewBox="0 0 6.73404 10" fill="none" xmlns="http://www.w3.org/2000/svg">
<g id="Group">
<path id="Vector" d="M1.6835 10C2.61279 10 3.36701 9.25337 3.36701 8.33337V6.6667H1.6835C0.754208 6.6667 0 7.41337 0 8.33337C0 9.25337 0.754208 10 1.6835 10Z" fill="var(--fill-0, #0ACF83)"/>
<path id="Vector_2" d="M0 4.99996C0 4.07996 0.754208 3.3333 1.6835 3.3333H3.36701V6.66663H1.6835C0.754208 6.66663 0 5.91996 0 4.99996Z" fill="var(--fill-0, #A259FF)"/>
<path id="Vector_3" d="M0 1.66666C0 0.746666 0.754208 0 1.6835 0H3.36701V3.33334H1.6835C0.754208 3.33334 0 2.58666 0 1.66666Z" fill="var(--fill-0, #F24E1E)"/>
<path id="Vector_4" d="M3.36703 0H5.05054C5.97984 0 6.73404 0.746666 6.73404 1.66666C6.73404 2.58666 5.97984 3.33334 5.05054 3.33334H3.36703V0Z" fill="var(--fill-0, #FF7262)"/>
<path id="Vector_5" d="M6.73404 4.99996C6.73404 5.91996 5.97984 6.66663 5.05054 6.66663C4.12125 6.66663 3.36703 5.91996 3.36703 4.99996C3.36703 4.07996 4.12125 3.3333 5.05054 3.3333C5.97984 3.3333 6.73404 4.07996 6.73404 4.99996Z" fill="var(--fill-0, #1ABCFE)"/>
</g>
</svg>
