<svg preserveAspectRatio="none" width="100%" height="100%" overflow="visible" style="display: block;" viewBox="0 0 8.53241 7.76582" fill="none" xmlns="http://www.w3.org/2000/svg">
<g id="Frame" clip-path="url(#clip0_45_61)">
<path id="Vector" d="M6.20552 -9.91987e-05H7.75686V1.55125H6.20552V-9.91987e-05Z" fill="var(--fill-0, black)"/>
<path id="Vector_2" d="M6.98115 -9.91987e-05H8.5325V1.55125H6.98115V-9.91987e-05Z" fill="var(--fill-0, #F7D046)"/>
<path id="Vector_3" d="M7.96318e-05 0H1.55143V1.55135H7.96318e-05V0ZM7.96318e-05 1.55135H1.55143V3.10269H7.96318e-05V1.55135ZM7.96318e-05 3.10269H1.55143V4.65404H7.96318e-05V3.10269ZM7.96318e-05 4.65404H1.55143V6.20539H7.96318e-05V4.65404ZM7.96318e-05 6.20539H1.55143V7.75673H7.96318e-05V6.20539Z" fill="var(--fill-0, black)"/>
<path id="Vector_4" d="M0.775888 -9.91987e-05H2.32723V1.55125H0.775888V-9.91987e-05Z" fill="var(--fill-0, #F7D046)"/>
<path id="Vector_5" d="M6.98127 1.55117H8.53262V3.10252H6.98127V1.55117ZM0.775888 1.55117H2.32723V3.10252H0.775888V1.55117Z" fill="var(--fill-0, #F2A73B)"/>
<path id="Vector_6" d="M4.65425 1.55117H6.2056V3.10252H4.65425V1.55117Z" fill="var(--fill-0, black)"/>
<path id="Vector_7" d="M5.42985 1.55117H6.9812V3.10252H5.42985V1.55117ZM2.32716 1.55117H3.8785V3.10252H2.32716V1.55117Z" fill="var(--fill-0, #F2A73B)"/>
<path id="Vector_8" d="M3.8785 3.10244H5.42985V4.65378H3.8785V3.10244ZM5.42985 3.10244H6.9812V4.65378H5.42985V3.10244ZM2.32716 3.10244H3.8785V4.65378H2.32716V3.10244Z" fill="var(--fill-0, #EE792F)"/>
<path id="Vector_9" d="M3.10279 4.65409H4.65414V6.20543H3.10279V4.65409Z" fill="var(--fill-0, black)"/>
<path id="Vector_10" d="M3.87843 4.65409H5.42977V6.20543H3.87843V4.65409Z" fill="var(--fill-0, #EB5829)"/>
<path id="Vector_11" d="M6.98127 3.10244H8.53262V4.65378H6.98127V3.10244ZM0.775888 3.10244H2.32723V4.65378H0.775888V3.10244Z" fill="var(--fill-0, #EE792F)"/>
<path id="Vector_12" d="M6.20552 4.65409H7.75686V6.20543H6.20552V4.65409Z" fill="var(--fill-0, black)"/>
<path id="Vector_13" d="M6.98115 4.65409H8.5325V6.20543H6.98115V4.65409Z" fill="var(--fill-0, #EB5829)"/>
<path id="Vector_14" d="M6.20552 6.20535H7.75686V7.7567H6.20552V6.20535Z" fill="var(--fill-0, black)"/>
<path id="Vector_15" d="M0.775888 4.65409H2.32723V6.20543H0.775888V4.65409Z" fill="var(--fill-0, #EB5829)"/>
<path id="Vector_16" d="M6.98127 6.20535H8.53262V7.7567H6.98127V6.20535ZM0.775888 6.20535H2.32723V7.7567H0.775888V6.20535Z" fill="var(--fill-0, #EA3326)"/>
</g>
<defs>
<clipPath id="clip0_45_61">
<rect width="8.53241" height="7.76582" fill="white"/>
</clipPath>
</defs>
</svg>
